<svg xmlns="http://www.w3.org/2000/svg" width="430" height="430" viewBox="0 0 430 430">
  <g id="axd" transform="translate(-745 -2287)">
    <g id="Ellipse_33" data-name="Ellipse 33" transform="translate(745 2287)" fill="#ffff03" stroke="#ffff03" stroke-width="10">
      <circle cx="215" cy="215" r="215" stroke="none"/>
      <circle cx="215" cy="215" r="210" fill="none"/>
    </g>
    <path id="xd" d="M133.262.45H28.677A28.653,28.653,0,0,0,0,29.127V129.663A28.653,28.653,0,0,0,28.677,158.34H133.262a28.653,28.653,0,0,0,28.677-28.677V29.127A28.653,28.653,0,0,0,133.262.45Zm21.862,126.582A24.446,24.446,0,0,1,130.7,151.593H31.241A24.535,24.535,0,0,1,6.747,127.1V31.691A24.535,24.535,0,0,1,31.241,7.2h99.39a24.493,24.493,0,0,1,24.493,24.493Zm-91.09-52.7,18.893,36.3c.337.54.135,1.08-.4,1.08H70.781a1.324,1.324,0,0,1-1.417-.877c-4.318-8.907-8.7-17.813-13.225-27.395H56c-4.048,9.042-8.5,18.555-12.82,27.462a1.3,1.3,0,0,1-1.215.742H30.836c-.675,0-.742-.54-.4-.945L48.919,75.482,31.038,39.855a.545.545,0,0,1,.4-.945H43.049a1.063,1.063,0,0,1,1.215.742c4.251,8.907,8.569,18.083,12.618,27.057h.135c3.914-8.907,8.232-18.151,12.415-26.99.337-.54.54-.877,1.215-.877H81.509c.54,0,.742.4.4.945Zm22.2,11c0-15.722,10.459-28,27.057-28a29.921,29.921,0,0,1,3.509.135V39.585a.676.676,0,0,1,.675-.675h10.661c.54,0,.675.2.675.54v61.941a48.06,48.06,0,0,0,.337,6.612c0,.4-.135.54-.54.742a40.192,40.192,0,0,1-17.273,3.914C96.691,112.727,86.232,103.686,86.232,85.333ZM116.8,68.059a10.2,10.2,0,0,0-3.914-.675c-8.5,0-14.44,6.545-14.44,17.408,0,12.415,6.073,17.408,13.7,17.408a12.73,12.73,0,0,0,4.656-.742v-33.4Z" transform="translate(880 2433.76)" fill="#023047"/>
  </g>
</svg>
