<svg xmlns="http://www.w3.org/2000/svg" width="2303.907" height="1228.595" viewBox="0 0 2303.907 1228.595">
  <g id="footer" transform="translate(175.896 -6490.796)">
    <path id="Path_23" data-name="Path 23" d="M0,0H383V664H0Z" transform="translate(1360 6976)" fill="#ffff03"/>
    <g id="Group_37" data-name="Group 37">
      <rect id="Rectangle_8" data-name="Rectangle 8" width="383" height="664" transform="translate(977 6692)" fill="#219ebc"/>
      <g id="footer-2" data-name="footer" transform="translate(1921 6950.019) rotate(90)">
        <g id="Group_4" data-name="Group 4" transform="translate(0 1920.884) rotate(-90)">
          <circle id="Ellipse_3" data-name="Ellipse 3" cx="191.988" cy="191.988" r="191.988" transform="translate(975.941 -459.222)" fill="#219ebc"/>
          <circle id="Ellipse_4" data-name="Ellipse 4" cx="191.988" cy="191.988" r="191.988" transform="translate(1359.918 -160)" fill="#ffff03"/>
          <circle id="Ellipse_5" data-name="Ellipse 5" cx="191.988" cy="191.988" r="191.988" transform="translate(1151.93 192.875)" fill="#fb8500"/>
          <circle id="Ellipse_7" data-name="Ellipse 7" cx="191.988" cy="191.988" r="191.988" transform="translate(383.977 192.875)" fill="#219ebc"/>
          <circle id="Ellipse_8" data-name="Ellipse 8" cx="191.988" cy="191.988" r="191.988" transform="translate(767.953 192.875)" fill="#ffff03"/>
          <path id="Path_17" data-name="Path 17" d="M191.988,0C298.021,0,383.977,85.956,383.977,191.988S298.021,383.977,191.988,383.977,0,298.021,0,191.988,85.956,0,191.988,0Z" transform="translate(1535.907 192.875)" fill="#219ebc"/>
          <circle id="Ellipse_11" data-name="Ellipse 11" cx="191.988" cy="191.988" r="191.988" transform="translate(207.987 385.396)" fill="#023047"/>
          <path id="Path_11" data-name="Path 11" d="M191.988,0C298.021,0,383.977,85.956,383.977,191.988S298.021,383.977,191.988,383.977,0,298.021,0,191.988,85.956,0,191.988,0Z" transform="translate(591.964 385.396)" fill="#fb8500"/>
          <circle id="Ellipse_13" data-name="Ellipse 13" cx="191.988" cy="191.988" r="191.988" transform="translate(975.941 385.396)" fill="#219ebc"/>
          <circle id="Ellipse_14" data-name="Ellipse 14" cx="191.988" cy="191.988" r="191.988" transform="translate(1359.918 385.396)" fill="#ffb703"/>
          <circle id="Ellipse_26" data-name="Ellipse 26" cx="191.988" cy="191.988" r="191.988" transform="translate(591.987 385.396)" fill="#023047"/>
          <path id="Path_12" data-name="Path 12" d="M191.988,0C298.021,0,383.977,85.956,383.977,191.988S298.021,383.977,191.988,383.977,0,298.021,0,191.988,85.956,0,191.988,0Z" transform="translate(975.964 385.396)" fill="#fb8500"/>
          <path id="Path_16" data-name="Path 16" d="M191.988,0C298.021,0,383.977,85.956,383.977,191.988S298.021,383.977,191.988,383.977,0,298.021,0,191.988,85.956,0,191.988,0Z" transform="translate(1359.941 385.396)" fill="#023047"/>
          <circle id="Ellipse_28" data-name="Ellipse 28" cx="191.988" cy="191.988" r="191.988" transform="translate(1743.918 385.396)" fill="#ffff03"/>
          <path id="Path_15" data-name="Path 15" d="M191.988,0C298.021,0,383.977,85.956,383.977,191.988S298.021,383.977,191.988,383.977,0,298.021,0,191.988,85.956,0,191.988,0Z" transform="translate(1359.894 769.373) rotate(180)" fill="#219ebc"/>
          <path id="Path_13" data-name="Path 13" d="M191.988,0C298.021,0,383.977,85.956,383.977,191.988S298.021,383.977,191.988,383.977,0,298.021,0,191.988,85.956,0,191.988,0Z" transform="translate(975.917 769.373) rotate(180)" fill="#fb8500"/>
          <path id="Path_14" data-name="Path 14" d="M191.988,0C298.021,0,383.977,85.956,383.977,191.988S298.021,383.977,191.988,383.977,0,298.021,0,191.988,85.956,0,191.988,0Z" transform="translate(591.94 769.373) rotate(180)" fill="#023047"/>
          <path id="Path_22" data-name="Path 22" d="M191.988,0C298.021,0,383.977,85.956,383.977,191.988S298.021,383.977,191.988,383.977,0,298.021,0,191.988,85.956,0,191.988,0Z" transform="translate(207.964 769.373) rotate(180)" fill="#ffff03"/>
        </g>
      </g>
    </g>
  </g>
</svg>
