<svg xmlns="http://www.w3.org/2000/svg" width="1919.583" height="1038.204" viewBox="0 0 1919.583 1038.204">
  <g id="footer" transform="translate(-0.5 -6511.796)">
    <path id="Subtraction_7" data-name="Subtraction 7" d="M26.573,423.5H-165V229.915a193.379,193.379,0,0,1,38.284,3.9A191.061,191.061,0,0,1-90.678,245a192.015,192.015,0,0,1,32.612,17.7,193.436,193.436,0,0,1,28.414,23.443A193.434,193.434,0,0,1-6.208,314.56a192.083,192.083,0,0,1,17.7,32.612A191.054,191.054,0,0,1,22.68,383.211a193.384,193.384,0,0,1,3.9,38.692c0,.492,0,1.029-.007,1.6Z" transform="translate(165.5 7126.5)" fill="#ffff03"/>
    <g id="footer-2" data-name="footer" transform="translate(-16 34)" style="isolation: isolate">
      <path id="Path_23" data-name="Path 23" d="M0,0H383V540H0Z" transform="translate(1360 6976)" fill="#ffff03"/>
      <g id="Group_37" data-name="Group 37" transform="translate(0 -13)">
        <path id="Path_31" data-name="Path 31" d="M0,0H383V664H0Z" transform="translate(977 6692)" fill="#1dd3b0"/>
        <g id="footer-3" data-name="footer" transform="translate(1921 6950.019) rotate(90)">
          <g id="Group_4" data-name="Group 4" transform="translate(0 1920.884) rotate(-90)">
            <circle id="Ellipse_3" data-name="Ellipse 3" cx="191.988" cy="191.988" r="191.988" transform="translate(975.941 -459.222)" fill="#1dd3b0"/>
            <circle id="Ellipse_4" data-name="Ellipse 4" cx="191.988" cy="191.988" r="191.988" transform="translate(1359.918 -160)" fill="#ffff03"/>
            <circle id="Ellipse_5" data-name="Ellipse 5" cx="191.988" cy="191.988" r="191.988" transform="translate(1151.93 192.875)" fill="#fb8500"/>
            <circle id="Ellipse_7" data-name="Ellipse 7" cx="191.988" cy="191.988" r="191.988" transform="translate(383.977 192.875)" fill="#1dd3b0"/>
            <circle id="Ellipse_8" data-name="Ellipse 8" cx="191.988" cy="191.988" r="191.988" transform="translate(767.953 192.875)" fill="#ffff03"/>
            <path id="Path_17" data-name="Path 17" d="M191.988,0C298.021,0,383.977,85.956,383.977,191.988S298.021,383.977,191.988,383.977,0,298.021,0,191.988,85.956,0,191.988,0Z" transform="translate(1535.907 192.875)" fill="#1dd3b0"/>
          </g>
        </g>
      </g>
    </g>
    <path id="Subtraction_2" data-name="Subtraction 2" d="M-.95,278.585H-384.913c0-.6-.007-1.119-.007-1.6a193.413,193.413,0,0,1,3.9-38.692,191.024,191.024,0,0,1,11.187-36.038,192.009,192.009,0,0,1,17.7-32.612,193.369,193.369,0,0,1,23.443-28.414,193.368,193.368,0,0,1,28.414-23.444,192.006,192.006,0,0,1,32.612-17.7A191.019,191.019,0,0,1-231.624,88.9,193.405,193.405,0,0,1-192.931,85a193.405,193.405,0,0,1,38.692,3.9A191.019,191.019,0,0,1-118.2,100.087a192.006,192.006,0,0,1,32.612,17.7,193.369,193.369,0,0,1,28.414,23.444,193.369,193.369,0,0,1,23.443,28.414,192.009,192.009,0,0,1,17.7,32.612A191.023,191.023,0,0,1-4.844,238.3a193.411,193.411,0,0,1,3.9,38.692c0,.526,0,1.063-.006,1.6Z" transform="translate(577 7271.415)" fill="#fb8500"/>
    <path id="Subtraction_3" data-name="Subtraction 3" d="M-.95,278.585H-384.913c0-.6-.007-1.119-.007-1.6a193.413,193.413,0,0,1,3.9-38.692,191.024,191.024,0,0,1,11.187-36.038,192.009,192.009,0,0,1,17.7-32.612,193.369,193.369,0,0,1,23.443-28.414,193.368,193.368,0,0,1,28.414-23.444,192.006,192.006,0,0,1,32.612-17.7A191.019,191.019,0,0,1-231.624,88.9,193.405,193.405,0,0,1-192.931,85a193.405,193.405,0,0,1,38.692,3.9A191.019,191.019,0,0,1-118.2,100.087a192.006,192.006,0,0,1,32.612,17.7,193.369,193.369,0,0,1,28.414,23.444,193.369,193.369,0,0,1,23.443,28.414,192.009,192.009,0,0,1,17.7,32.612A191.023,191.023,0,0,1-4.844,238.3a193.411,193.411,0,0,1,3.9,38.692c0,.526,0,1.063-.006,1.6Z" transform="translate(961 7271.415)" fill="#023047"/>
    <path id="Subtraction_4" data-name="Subtraction 4" d="M-.95,278.585H-384.913c0-.6-.007-1.119-.007-1.6a193.413,193.413,0,0,1,3.9-38.692,191.024,191.024,0,0,1,11.187-36.038,192.009,192.009,0,0,1,17.7-32.612,193.369,193.369,0,0,1,23.443-28.414,193.368,193.368,0,0,1,28.414-23.444,192.006,192.006,0,0,1,32.612-17.7A191.019,191.019,0,0,1-231.624,88.9,193.405,193.405,0,0,1-192.931,85a193.405,193.405,0,0,1,38.692,3.9A191.019,191.019,0,0,1-118.2,100.087a192.006,192.006,0,0,1,32.612,17.7,193.369,193.369,0,0,1,28.414,23.444,193.369,193.369,0,0,1,23.443,28.414,192.009,192.009,0,0,1,17.7,32.612A191.023,191.023,0,0,1-4.844,238.3a193.411,193.411,0,0,1,3.9,38.692c0,.526,0,1.063-.006,1.6Z" transform="translate(1345 7271.415)" fill="#1dd3b0"/>
    <path id="Subtraction_5" data-name="Subtraction 5" d="M-.95,278.585H-384.913c0-.6-.007-1.119-.007-1.6a193.413,193.413,0,0,1,3.9-38.692,191.024,191.024,0,0,1,11.187-36.038,192.009,192.009,0,0,1,17.7-32.612,193.369,193.369,0,0,1,23.443-28.414,193.368,193.368,0,0,1,28.414-23.444,192.006,192.006,0,0,1,32.612-17.7A191.019,191.019,0,0,1-231.624,88.9,193.405,193.405,0,0,1-192.931,85a193.405,193.405,0,0,1,38.692,3.9A191.019,191.019,0,0,1-118.2,100.087a192.006,192.006,0,0,1,32.612,17.7,193.369,193.369,0,0,1,28.414,23.444,193.369,193.369,0,0,1,23.443,28.414,192.009,192.009,0,0,1,17.7,32.612A191.023,191.023,0,0,1-4.844,238.3a193.411,193.411,0,0,1,3.9,38.692c0,.526,0,1.063-.006,1.6Z" transform="translate(1729 7271.415)" fill="#023047"/>
    <path id="Subtraction_9" data-name="Subtraction 9" d="M26.573,423.5H-165V229.915a193.379,193.379,0,0,1,38.284,3.9A191.061,191.061,0,0,1-90.678,245a192.015,192.015,0,0,1,32.612,17.7,193.436,193.436,0,0,1,28.414,23.443A193.434,193.434,0,0,1-6.208,314.56a192.083,192.083,0,0,1,17.7,32.612A191.054,191.054,0,0,1,22.68,383.211a193.384,193.384,0,0,1,3.9,38.692c0,.492,0,1.029-.007,1.6Z" transform="translate(1496.583 7383.998) rotate(-90)" fill="#fb8500"/>
  </g>
</svg>
