<svg xmlns="http://www.w3.org/2000/svg" width="2835.556" height="767.113" viewBox="0 0 2835.556 767.113">
  <g id="footer" transform="translate(658.919 -6511.796)">
    <g id="footer-2" data-name="footer" transform="translate(322.061 6511.796)" style="isolation: isolate">
      <path id="Path_23" data-name="Path 23" d="M0,0H282.835V398.775H0Z" transform="translate(720.681 367.91)" fill="#ffff03"/>
      <g id="Group_37" data-name="Group 37" transform="translate(0 0)">
        <path id="Path_31" data-name="Path 31" d="M0,0H282.835V490.346H0Z" transform="translate(437.846 148.583)" fill="#1dd3b0"/>
        <g id="footer-3" data-name="footer" transform="translate(1134.226 0) rotate(90)">
          <g id="Group_4" data-name="Group 4" transform="translate(0 1134.226) rotate(-90)">
            <circle id="Ellipse_3" data-name="Ellipse 3" cx="141.778" cy="141.778" r="141.778" transform="translate(437.15 0)" fill="#1dd3b0"/>
            <circle id="Ellipse_4" data-name="Ellipse 4" cx="141.778" cy="141.778" r="141.778" transform="translate(720.706 220.968)" fill="#ffff03"/>
            <circle id="Ellipse_5" data-name="Ellipse 5" cx="141.778" cy="141.778" r="141.778" transform="translate(567.113 481.557)" fill="#fb8500"/>
            <circle id="Ellipse_7" data-name="Ellipse 7" cx="141.778" cy="141.778" r="141.778" transform="translate(0 481.557)" fill="#1dd3b0"/>
            <circle id="Ellipse_8" data-name="Ellipse 8" cx="141.778" cy="141.778" r="141.778" transform="translate(283.556 481.557)" fill="#ffff03"/>
            <path id="Path_17" data-name="Path 17" d="M141.778,0A141.778,141.778,0,1,1,0,141.778,141.778,141.778,0,0,1,141.778,0Z" transform="translate(850.669 481.557)" fill="#1dd3b0"/>
            <circle id="Ellipse_38" data-name="Ellipse 38" cx="141.778" cy="141.778" r="141.778" transform="translate(-283.887 483.557)" fill="#fb8500"/>
            <circle id="Ellipse_39" data-name="Ellipse 39" cx="141.778" cy="141.778" r="141.778" transform="translate(-851 483.557)" fill="#1dd3b0"/>
            <circle id="Ellipse_40" data-name="Ellipse 40" cx="141.778" cy="141.778" r="141.778" transform="translate(-567.444 483.557)" fill="#ffff03"/>
            <path id="Path_45" data-name="Path 45" d="M141.778,0A141.778,141.778,0,1,1,0,141.778,141.778,141.778,0,0,1,141.778,0Z" transform="translate(-0.331 483.557)" fill="#1dd3b0"/>
            <circle id="Ellipse_41" data-name="Ellipse 41" cx="141.778" cy="141.778" r="141.778" transform="translate(1134.113 481.557)" fill="#fb8500"/>
            <path id="Path_49" data-name="Path 49" d="M141.778,0A141.778,141.778,0,1,1,0,141.778,141.778,141.778,0,0,1,141.778,0Z" transform="translate(1417.669 481.557)" fill="#1dd3b0"/>
          </g>
        </g>
      </g>
    </g>
    <path id="Subtraction_2" data-name="Subtraction 2" d="M283.551,142.958H0c0-.394,0-.79,0-1.179a142.828,142.828,0,0,1,2.88-28.573,141,141,0,0,1,21.333-50.7A142.192,142.192,0,0,1,86.592,11.142,141.065,141.065,0,0,1,113.2,2.88a143.16,143.16,0,0,1,57.146,0,141,141,0,0,1,50.7,21.333,142.191,142.191,0,0,1,51.367,62.378,141.067,141.067,0,0,1,8.261,26.613,142.828,142.828,0,0,1,2.88,28.573c0,.384,0,.781,0,1.178Z" transform="translate(192.081 7135.524)" fill="#fb8500"/>
    <path id="Subtraction_3" data-name="Subtraction 3" d="M283.551,142.958H0c0-.394,0-.79,0-1.179a142.828,142.828,0,0,1,2.88-28.573,141,141,0,0,1,21.333-50.7A142.192,142.192,0,0,1,86.592,11.142,141.065,141.065,0,0,1,113.2,2.88a143.16,143.16,0,0,1,57.146,0,141,141,0,0,1,50.7,21.333,142.191,142.191,0,0,1,51.367,62.378,141.067,141.067,0,0,1,8.261,26.613,142.828,142.828,0,0,1,2.88,28.573c0,.384,0,.781,0,1.178Z" transform="translate(475.654 7135.524)" fill="#023047"/>
    <path id="Subtraction_4" data-name="Subtraction 4" d="M283.551,142.958H0c0-.394,0-.79,0-1.179a142.828,142.828,0,0,1,2.88-28.573,141,141,0,0,1,21.333-50.7A142.192,142.192,0,0,1,86.592,11.142,141.065,141.065,0,0,1,113.2,2.88a143.16,143.16,0,0,1,57.146,0,141,141,0,0,1,50.7,21.333,142.191,142.191,0,0,1,51.367,62.378,141.067,141.067,0,0,1,8.261,26.613,142.828,142.828,0,0,1,2.88,28.573c0,.384,0,.781,0,1.178Z" transform="translate(759.228 7135.524)" fill="#1dd3b0"/>
    <path id="Subtraction_5" data-name="Subtraction 5" d="M283.551,142.958H0c0-.394,0-.79,0-1.179a142.828,142.828,0,0,1,2.88-28.573,141,141,0,0,1,21.333-50.7A142.192,142.192,0,0,1,86.592,11.142,141.065,141.065,0,0,1,113.2,2.88a143.16,143.16,0,0,1,57.146,0,141,141,0,0,1,50.7,21.333,142.191,142.191,0,0,1,51.367,62.378,141.067,141.067,0,0,1,8.261,26.613,142.828,142.828,0,0,1,2.88,28.573c0,.384,0,.781,0,1.178Z" transform="translate(1042.802 7135.524)" fill="#023047"/>
    <path id="Subtraction_14" data-name="Subtraction 14" d="M283.551,142.958H0c0-.394,0-.79,0-1.179a142.828,142.828,0,0,1,2.88-28.573,141,141,0,0,1,21.333-50.7A142.192,142.192,0,0,1,86.592,11.142,141.065,141.065,0,0,1,113.2,2.88a143.16,143.16,0,0,1,57.146,0,141,141,0,0,1,50.7,21.333,142.191,142.191,0,0,1,51.367,62.378,141.067,141.067,0,0,1,8.261,26.613,142.828,142.828,0,0,1,2.88,28.573c0,.384,0,.781,0,1.178Z" transform="translate(-658.919 7135.524)" fill="#fb8500"/>
    <path id="Subtraction_15" data-name="Subtraction 15" d="M283.551,142.958H0c0-.394,0-.79,0-1.179a142.828,142.828,0,0,1,2.88-28.573,141,141,0,0,1,21.333-50.7A142.192,142.192,0,0,1,86.592,11.142,141.065,141.065,0,0,1,113.2,2.88a143.16,143.16,0,0,1,57.146,0,141,141,0,0,1,50.7,21.333,142.191,142.191,0,0,1,51.367,62.378,141.067,141.067,0,0,1,8.261,26.613,142.828,142.828,0,0,1,2.88,28.573c0,.384,0,.781,0,1.178Z" transform="translate(-375.346 7135.524)" fill="#023047"/>
    <path id="Subtraction_16" data-name="Subtraction 16" d="M283.551,142.958H0c0-.394,0-.79,0-1.179a142.828,142.828,0,0,1,2.88-28.573,141,141,0,0,1,21.333-50.7A142.192,142.192,0,0,1,86.592,11.142,141.065,141.065,0,0,1,113.2,2.88a143.16,143.16,0,0,1,57.146,0,141,141,0,0,1,50.7,21.333,142.191,142.191,0,0,1,51.367,62.378,141.067,141.067,0,0,1,8.261,26.613,142.828,142.828,0,0,1,2.88,28.573c0,.384,0,.781,0,1.178Z" transform="translate(-91.772 7135.524)" fill="#1dd3b0"/>
    <path id="Subtraction_17" data-name="Subtraction 17" d="M283.551,142.958H0c0-.394,0-.79,0-1.179a142.828,142.828,0,0,1,2.88-28.573,141,141,0,0,1,21.333-50.7A142.192,142.192,0,0,1,86.592,11.142,141.065,141.065,0,0,1,113.2,2.88a143.16,143.16,0,0,1,57.146,0,141,141,0,0,1,50.7,21.333,142.191,142.191,0,0,1,51.367,62.378,141.067,141.067,0,0,1,8.261,26.613,142.828,142.828,0,0,1,2.88,28.573c0,.384,0,.781,0,1.178Z" transform="translate(191.802 7135.524)" fill="#ffff03"/>
    <path id="Subtraction_18" data-name="Subtraction 18" d="M283.551,142.958H0c0-.394,0-.79,0-1.179a142.828,142.828,0,0,1,2.88-28.573,141,141,0,0,1,21.333-50.7A142.192,142.192,0,0,1,86.592,11.142,141.065,141.065,0,0,1,113.2,2.88a143.16,143.16,0,0,1,57.146,0,141,141,0,0,1,50.7,21.333,142.191,142.191,0,0,1,51.367,62.378,141.067,141.067,0,0,1,8.261,26.613,142.828,142.828,0,0,1,2.88,28.573c0,.384,0,.781,0,1.178Z" transform="translate(1042.654 7135.524)" fill="#023047"/>
    <path id="Subtraction_19" data-name="Subtraction 19" d="M283.551,142.958H0c0-.394,0-.79,0-1.179a142.828,142.828,0,0,1,2.88-28.573,141,141,0,0,1,21.333-50.7A142.192,142.192,0,0,1,86.592,11.142,141.065,141.065,0,0,1,113.2,2.88a143.16,143.16,0,0,1,57.146,0,141,141,0,0,1,50.7,21.333,142.191,142.191,0,0,1,51.367,62.378,141.067,141.067,0,0,1,8.261,26.613,142.828,142.828,0,0,1,2.88,28.573c0,.384,0,.781,0,1.178Z" transform="translate(1326.228 7135.524)" fill="#ffff03"/>
    <path id="Subtraction_20" data-name="Subtraction 20" d="M283.551,142.958H0c0-.394,0-.79,0-1.179a142.828,142.828,0,0,1,2.88-28.573,141,141,0,0,1,21.333-50.7A142.192,142.192,0,0,1,86.592,11.142,141.065,141.065,0,0,1,113.2,2.88a143.16,143.16,0,0,1,57.146,0,141,141,0,0,1,50.7,21.333,142.191,142.191,0,0,1,51.367,62.378,141.067,141.067,0,0,1,8.261,26.613,142.828,142.828,0,0,1,2.88,28.573c0,.384,0,.781,0,1.178Z" transform="translate(1609.802 7135.524)" fill="#023047"/>
    <path id="Subtraction_21" data-name="Subtraction 21" d="M283.551,142.958H0c0-.394,0-.79,0-1.179a142.828,142.828,0,0,1,2.88-28.573,141,141,0,0,1,21.333-50.7A142.192,142.192,0,0,1,86.592,11.142,141.065,141.065,0,0,1,113.2,2.88a143.16,143.16,0,0,1,57.146,0,141,141,0,0,1,50.7,21.333,142.191,142.191,0,0,1,51.367,62.378,141.067,141.067,0,0,1,8.261,26.613,142.828,142.828,0,0,1,2.88,28.573c0,.384,0,.781,0,1.178Z" transform="translate(1893.081 7135.524)" fill="#fb8500"/>
  </g>
</svg>
