<svg xmlns="http://www.w3.org/2000/svg" width="108.904" height="864.01" viewBox="0 0 108.904 864.01">
  <g id="four-dots-half-full" transform="translate(2413.537 6094.871) rotate(180)">
    <path id="Subtraction_10" data-name="Subtraction 10" d="M-168.913,193.9h-216c0-.3,0-.606,0-.9a108.8,108.8,0,0,1,2.194-21.767,107.46,107.46,0,0,1,6.293-20.274,108.017,108.017,0,0,1,9.958-18.346,108.779,108.779,0,0,1,13.188-15.985A108.781,108.781,0,0,1-337.3,103.445a108.015,108.015,0,0,1,18.346-9.958,107.461,107.461,0,0,1,20.274-6.293A108.8,108.8,0,0,1-276.914,85a108.8,108.8,0,0,1,21.767,2.194,107.458,107.458,0,0,1,20.274,6.293,108.014,108.014,0,0,1,18.346,9.958,108.783,108.783,0,0,1,15.984,13.188,108.781,108.781,0,0,1,13.188,15.985,108.015,108.015,0,0,1,9.958,18.346,107.462,107.462,0,0,1,6.293,20.274,108.805,108.805,0,0,1,2.194,21.767c0,.294,0,.6,0,.9Z" transform="translate(2219.634 5709.952) rotate(-90)" fill="#023047"/>
    <path id="Subtraction_11" data-name="Subtraction 11" d="M-168.913,193.9h-216c0-.3,0-.606,0-.9a108.8,108.8,0,0,1,2.194-21.767,107.46,107.46,0,0,1,6.293-20.274,108.017,108.017,0,0,1,9.958-18.346,108.779,108.779,0,0,1,13.188-15.985A108.781,108.781,0,0,1-337.3,103.445a108.015,108.015,0,0,1,18.346-9.958,107.461,107.461,0,0,1,20.274-6.293A108.8,108.8,0,0,1-276.914,85a108.8,108.8,0,0,1,21.767,2.194,107.458,107.458,0,0,1,20.274,6.293,108.014,108.014,0,0,1,18.346,9.958,108.783,108.783,0,0,1,15.984,13.188,108.781,108.781,0,0,1,13.188,15.985,108.015,108.015,0,0,1,9.958,18.346,107.462,107.462,0,0,1,6.293,20.274,108.805,108.805,0,0,1,2.194,21.767c0,.294,0,.6,0,.9Z" transform="translate(2219.634 5493.952) rotate(-90)" fill="#fb8500"/>
    <path id="Subtraction_12" data-name="Subtraction 12" d="M-168.913,193.9h-216c0-.3,0-.606,0-.9a108.8,108.8,0,0,1,2.194-21.767,107.46,107.46,0,0,1,6.293-20.274,108.017,108.017,0,0,1,9.958-18.346,108.779,108.779,0,0,1,13.188-15.985A108.781,108.781,0,0,1-337.3,103.445a108.015,108.015,0,0,1,18.346-9.958,107.461,107.461,0,0,1,20.274-6.293A108.8,108.8,0,0,1-276.914,85a108.8,108.8,0,0,1,21.767,2.194,107.458,107.458,0,0,1,20.274,6.293,108.014,108.014,0,0,1,18.346,9.958,108.783,108.783,0,0,1,15.984,13.188,108.781,108.781,0,0,1,13.188,15.985,108.015,108.015,0,0,1,9.958,18.346,107.462,107.462,0,0,1,6.293,20.274,108.805,108.805,0,0,1,2.194,21.767c0,.294,0,.6,0,.9Z" transform="translate(2219.634 5277.952) rotate(-90)" fill="#1dd3b0"/>
    <path id="Subtraction_13" data-name="Subtraction 13" d="M-168.913,193.9h-216c0-.3,0-.606,0-.9a108.8,108.8,0,0,1,2.194-21.767,107.46,107.46,0,0,1,6.293-20.274,108.017,108.017,0,0,1,9.958-18.346,108.779,108.779,0,0,1,13.188-15.985A108.781,108.781,0,0,1-337.3,103.445a108.015,108.015,0,0,1,18.346-9.958,107.461,107.461,0,0,1,20.274-6.293A108.8,108.8,0,0,1-276.914,85a108.8,108.8,0,0,1,21.767,2.194,107.458,107.458,0,0,1,20.274,6.293,108.014,108.014,0,0,1,18.346,9.958,108.783,108.783,0,0,1,15.984,13.188,108.781,108.781,0,0,1,13.188,15.985,108.015,108.015,0,0,1,9.958,18.346,107.462,107.462,0,0,1,6.293,20.274,108.805,108.805,0,0,1,2.194,21.767c0,.294,0,.6,0,.9Z" transform="translate(2219.634 5061.952) rotate(-90)" fill="#ffff03"/>
  </g>
</svg>
