<svg xmlns="http://www.w3.org/2000/svg" width="430" height="430" viewBox="0 0 430 430">
  <g id="htmlcssjssass" transform="translate(-162 -2212)">
    <g id="hcj" transform="translate(0 -75)">
      <g id="Ellipse_32" data-name="Ellipse 32" transform="translate(162 2287)" fill="#ffff03" stroke="#ffff03" stroke-width="10">
        <circle cx="215" cy="215" r="215" stroke="none"/>
        <circle cx="215" cy="215" r="210" fill="none"/>
      </g>
    </g>
    <g id="Group_41" data-name="Group 41">
      <g id="Group_39" data-name="Group 39" transform="translate(20.536 -21.588)">
        <g id="hcj-2" data-name="hcj" transform="translate(-32 -85.662)">
          <path id="Icon_ionic-logo-html5" data-name="Icon ionic-logo-html5" d="M4.5,2.25l6.447,74.4,28.94,8.264L68.9,76.642,75.359,2.25ZM61.334,26.608H27.381l.736,9.411H60.6L58.1,63.954,39.928,69.138l-18.21-5.162-1.248-14.3h8.9l.632,7.25,9.922,2.728L49.786,56.9l1.029-11.838H20l-2.32-27.6,44.432,0Z" transform="translate(286.2 2438)" fill="#023047"/>
          <g id="Icon_ionic-logo-css3" data-name="Icon ionic-logo-css3" transform="translate(417.087 2440.25)">
            <path id="Path_24" data-name="Path 24" d="M-5.605,17.12Z" transform="translate(41.087 39.62)" fill="#023047"/>
            <path id="Path_25" data-name="Path 25" d="M-19.125-4.5l6.449,74.405,28.938,8.263L45.28,69.893,51.734-4.5ZM34.513,57.3l-18.2,5.19L-1.851,57.275-3.1,42.924h8.9l.633,7.3,9.888,2.8.024.05h.006l9.866-2.741L27.262,38.5H6.524l-.738-9.226H28.049l.811-9.411H-5.1l-.738-9.042H38.555Z" transform="translate(19.125 4.5)" fill="#023047"/>
          </g>
          <g id="Icon_ionic-logo-javascript" data-name="Icon ionic-logo-javascript" transform="translate(281.464 2550.083)">
            <path id="Path_26" data-name="Path 26" d="M7.727,2.813H-7.035V42.024c0,9.7-3.327,12.412-9.118,12.412a22.058,22.058,0,0,1-7.058-1.119L-24.75,64.8A35,35,0,0,0-14.618,66.29c13.295,0,22.345-6.25,22.345-24.169V2.813Z" transform="translate(24.75 -1.336)" fill="#023047"/>
            <path id="Path_27" data-name="Path 27" d="M14.336,2.25C.046,2.25-9,10.369-9,21.1c0,9.242,6.966,15.028,17.095,18.76,7.326,2.613,10.221,4.947,10.221,8.772,0,4.2-3.347,6.906-9.678,6.906A32.006,32.006,0,0,1-6.2,51.616v0L-9,63.278C-5.561,65.241.861,67.2,7.823,67.2c16.734,0,24.511-8.959,24.511-19.5,0-8.959-4.975-14.744-15.736-18.852C8.638,25.672,5.292,23.9,5.292,19.887c0-3.174,2.895-6.065,8.865-6.065a25.529,25.529,0,0,1,12.272,3.191L29.959,5.2A38.013,38.013,0,0,0,14.336,2.25Z" transform="translate(50.334 -2.25)" fill="#023047"/>
          </g>
        </g>
      </g>
      <path id="Icon_awesome-sass" data-name="Icon awesome-sass" d="M37.385,46.076C37.348,46.15,37.311,46.209,37.385,46.076ZM68.242,35.3a16.245,16.245,0,0,0-7.184,1.672,15.255,15.255,0,0,1-1.61-3.728,9.952,9.952,0,0,1-.136-3.134,26.39,26.39,0,0,1,.941-3.369c-.012-.136-.173-.817-1.771-.83s-2.973.31-3.132.731a15.213,15.213,0,0,0-.656,2.366c-.285,1.449-3.194,6.626-4.842,9.327a9.617,9.617,0,0,1-1.1-2.725,9.952,9.952,0,0,1-.136-3.134,26.39,26.39,0,0,1,.941-3.369c-.012-.136-.173-.817-1.77-.83s-2.973.31-3.134.731-.334,1.412-.656,2.366-4.2,9.574-5.212,11.816c-.52,1.14-.966,2.056-1.288,2.675-.05.1-.087.161-.111.211.037-.062.062-.124.062-.1-.272.533-.434.83-.434.83v.012c-.211.4-.446.756-.557.756a5.138,5.138,0,0,1,.037-2.465c.582-3,1.957-7.654,1.945-7.815-.012-.087.26-.892-.9-1.325a1.458,1.458,0,0,0-1.635.272c-.1,0-.173.248-.173.248s1.251-5.252-2.4-5.252c-2.279,0-5.45,2.5-7.008,4.769-.978.533-3.1,1.684-5.326,2.911-.855.471-1.734.954-2.564,1.412-.062-.062-.111-.124-.173-.186C13.818,35.411,5.633,32.067,5.98,25.713c.124-2.316.929-8.4,15.739-15.78C33.857,3.889,43.561,5.549,45.232,9.24c2.4,5.264-5.188,15.061-17.794,16.473-4.8.533-7.33-1.325-7.962-2.019-.656-.731-.756-.768-1-.632-.409.223-.149.867,0,1.251a7.463,7.463,0,0,0,4.557,3.58c2.316.756,7.949,1.177,14.76-1.462C45.442,23.484,51.4,15.272,49.652,8.4,47.874,1.412,36.29-.879,25.338,3.01c-6.526,2.316-13.584,5.958-18.661,10.7-6.031,5.648-7,10.565-6.6,12.621,1.411,7.3,11.466,12.051,15.49,15.569-.2.111-.384.211-.557.31-2.018,1-9.683,5.016-11.6,9.252-2.168,4.806.359,8.249,2.018,8.72C10.6,61.62,15.9,59.031,18.75,54.783s2.5-9.8,1.189-12.324c-.012-.037-.037-.062-.05-.1.52-.31,1.053-.619,1.585-.929,1.027-.607,2.03-1.164,2.909-1.647a19.238,19.238,0,0,0-1.04,5.276c-.223,2.725.9,6.255,2.366,7.642a2.6,2.6,0,0,0,1.906.619c1.709,0,2.477-1.412,3.331-3.1,1.053-2.056,1.982-4.447,1.982-4.447s-1.164,6.465,2.019,6.465c1.163,0,2.327-1.5,2.849-2.267v.012s.025-.05.087-.149c.124-.186.186-.3.186-.3v-.037c.471-.805,1.5-2.651,3.046-5.7,2.007-3.939,3.925-8.856,3.925-8.856a24.926,24.926,0,0,0,.768,3.2,29.918,29.918,0,0,0,1.66,3.716c-.471.644-.756,1.016-.756,1.016a.038.038,0,0,0,.012.025c-.372.5-.793,1.028-1.226,1.548a43.717,43.717,0,0,0-3.716,4.657,1.265,1.265,0,0,0,.347,1.7,3.011,3.011,0,0,0,1.943.31,8.589,8.589,0,0,0,2.911-.669,10.181,10.181,0,0,0,2.5-1.313,5.592,5.592,0,0,0,2.4-4.93,10.258,10.258,0,0,0-.9-3.493c.136-.2.285-.409.421-.619a65.844,65.844,0,0,0,4.346-7.508,24.925,24.925,0,0,0,.768,3.2,21.848,21.848,0,0,0,1.411,3.183,13.615,13.615,0,0,0-4.222,5.462c-.917,2.638-.2,3.827,1.152,4.1a4.156,4.156,0,0,0,2.118-.434,9.842,9.842,0,0,0,2.674-1.375c1.548-1.139,3.046-2.737,2.947-4.9a9.215,9.215,0,0,0-.669-2.9,15.118,15.118,0,0,1,7.69-.892c6.9.805,8.247,5.115,7.986,6.911a4.579,4.579,0,0,1-2.192,3.1c-.483.3-.632.409-.595.632.062.322.285.31.694.235A5.381,5.381,0,0,0,79.262,44.1c.2-4.211-3.851-8.844-11.023-8.806ZM15.085,53.222c-2.278,2.49-5.473,3.431-6.847,2.638C6.764,55,7.346,51.34,10.156,48.687a36.7,36.7,0,0,1,5.374-4.013c.334-.2.817-.5,1.412-.855.1-.062.149-.087.149-.087.111-.074.235-.136.359-.211a9.886,9.886,0,0,1-2.366,9.7ZM31.726,41.9c-.793,1.945-2.464,6.9-3.479,6.639-.867-.223-1.4-4-.173-7.716a17.083,17.083,0,0,1,2.713-4.967c1.25-1.4,2.625-1.846,2.947-1.288C34.166,35.3,32.222,40.688,31.726,41.9Zm13.748,6.565c-.334.173-.644.285-.793.2-.111-.062.136-.3.136-.3s1.722-1.846,2.4-2.688c.4-.5.855-1.078,1.349-1.722,0,.062.012.124.012.2-.016,2.217-2.145,3.716-3.111,4.31Zm10.6-2.415c-.248-.173-.211-.756.619-2.564a9.627,9.627,0,0,1,2.353-3.035,4.481,4.481,0,0,1,.235,1.338,4.367,4.367,0,0,1-3.207,4.261Z" transform="translate(402 2445.638)" fill="#023047"/>
    </g>
  </g>
</svg>
