<svg xmlns="http://www.w3.org/2000/svg" width="40.5" height="40.5" viewBox="0 0 40.5 40.5">
  <path id="Icon_awesome-facebook-square" data-name="Icon awesome-facebook-square" d="M36.161,2.25H4.339A4.339,4.339,0,0,0,0,6.589V38.411A4.339,4.339,0,0,0,4.339,42.75H16.747V28.981h-5.7V22.5h5.7V17.56c0-5.618,3.345-8.722,8.468-8.722a34.5,34.5,0,0,1,5.019.438v5.515H27.407c-2.785,0-3.654,1.728-3.654,3.5V22.5h6.218l-.994,6.481H23.753V42.75H36.161A4.339,4.339,0,0,0,40.5,38.411V6.589A4.339,4.339,0,0,0,36.161,2.25Z" transform="translate(0 -2.25)" fill="#ffff03"/>
</svg>
