<svg xmlns="http://www.w3.org/2000/svg" width="40.5" height="40.5" viewBox="0 0 40.5 40.5">
  <path id="Icon_awesome-linkedin" data-name="Icon awesome-linkedin" d="M37.607,2.25H2.884A2.905,2.905,0,0,0,0,5.17V39.83a2.905,2.905,0,0,0,2.884,2.92H37.607A2.913,2.913,0,0,0,40.5,39.83V5.17A2.913,2.913,0,0,0,37.607,2.25ZM12.24,36.964h-6V17.636h6.012V36.964ZM9.239,15a3.48,3.48,0,1,1,3.48-3.48A3.482,3.482,0,0,1,9.239,15Zm25.5,21.968h-6v-9.4c0-2.242-.045-5.126-3.119-5.126-3.128,0-3.607,2.441-3.607,4.963v9.565h-6V17.636h5.759v2.64h.081a6.322,6.322,0,0,1,5.686-3.119c6.075,0,7.205,4,7.205,9.212Z" transform="translate(0 -2.25)" fill="#ffff03"/>
</svg>
