<svg xmlns="http://www.w3.org/2000/svg" width="40.5" height="39.488" viewBox="0 0 40.5 39.488">
  <path id="Icon_awesome-github" data-name="Icon awesome-github" d="M13.546,32.358c0,.163-.188.294-.425.294-.269.024-.457-.106-.457-.294,0-.163.188-.294.425-.294C13.334,32.04,13.546,32.17,13.546,32.358Zm-2.539-.367c-.057.163.106.351.351.4a.383.383,0,0,0,.506-.163c.049-.163-.106-.351-.351-.425A.419.419,0,0,0,11.007,31.991Zm3.609-.139c-.237.057-.4.212-.376.4.024.163.237.269.482.212s.4-.212.376-.376S14.853,31.828,14.616,31.852ZM19.989.563A19.58,19.58,0,0,0,0,20.486,20.471,20.471,0,0,0,13.84,40.017c1.045.188,1.413-.457,1.413-.988,0-.506-.024-3.3-.024-5.014,0,0-5.716,1.225-6.916-2.433,0,0-.931-2.376-2.27-2.989,0,0-1.87-1.282.131-1.257a4.31,4.31,0,0,1,3.152,2.107c1.788,3.152,4.785,2.245,5.953,1.707A4.538,4.538,0,0,1,16.584,28.4c-4.564-.506-9.17-1.168-9.17-9.023a6.188,6.188,0,0,1,1.927-4.809,7.715,7.715,0,0,1,.212-5.544c1.707-.531,5.634,2.2,5.634,2.2a19.29,19.29,0,0,1,10.256,0s3.928-2.744,5.634-2.2a7.711,7.711,0,0,1,.212,5.544A6.347,6.347,0,0,1,33.4,19.375c0,7.88-4.809,8.508-9.374,9.023a4.829,4.829,0,0,1,1.388,3.789c0,2.752-.024,6.157-.024,6.826,0,.531.376,1.176,1.413.988A20.283,20.283,0,0,0,40.5,20.486C40.5,9.161,31.314.563,19.989.563ZM7.937,28.725c-.106.082-.082.269.057.425.131.131.318.188.425.082.106-.082.082-.269-.057-.425C8.231,28.676,8.043,28.619,7.937,28.725Zm-.882-.661c-.057.106.024.237.188.318a.243.243,0,0,0,.351-.057c.057-.106-.024-.237-.188-.318C7.243,27.957,7.112,27.982,7.055,28.063ZM9.7,30.97c-.131.106-.082.351.106.506.188.188.425.212.531.082.106-.106.057-.351-.106-.506C10.052,30.864,9.807,30.84,9.7,30.97Zm-.931-1.2c-.131.082-.131.294,0,.482s.351.269.457.188a.372.372,0,0,0,0-.506C9.113,29.745,8.9,29.664,8.77,29.77Z" transform="translate(0 -0.563)" fill="#ffff03"/>
</svg>
