<svg xmlns="http://www.w3.org/2000/svg" width="80.429" height="106.813" viewBox="0 0 80.429 106.813">
  <g id="logo" transform="translate(-114 -77.011)">
    <g id="Group_1" data-name="Group 1" transform="translate(114 77.011)">
      <path id="Path_1" data-name="Path 1" d="M66.165-249.452a9.2,9.2,0,0,1,2.822,6.742,8.213,8.213,0,0,1-2.822,6.428,9.025,9.025,0,0,1-6.585,2.822A9.025,9.025,0,0,1,53-236.281L21.323-267.639,18.815-264.5v21.637a9.137,9.137,0,0,1-2.665,6.742,9.137,9.137,0,0,1-6.742,2.665,9.137,9.137,0,0,1-6.742-2.665A9.137,9.137,0,0,1,0-242.866v-87.8a9.137,9.137,0,0,1,2.665-6.742,9.137,9.137,0,0,1,6.742-2.665,9.137,9.137,0,0,1,6.742,2.665,9.137,9.137,0,0,1,2.665,6.742v36.062l33.553-42.02a8.706,8.706,0,0,1,6.272-3.449,9.458,9.458,0,0,1,6.9,2.195,8.706,8.706,0,0,1,3.449,6.272,9.458,9.458,0,0,1-2.2,6.9l-33.553,42.02Z" transform="translate(11.407 340.272)" fill="none"/>
      <path id="Intersection_1" data-name="Intersection 1" d="M53,103.83,22.817,74.139c-1.861-2.247-3.955-3.847-5.32-5.336-3.138-3.423,1.9-11.956.187-16.52s-9.7-5.42-14.264-12.838C.957,35.444.653,30.2,0,24.511V9.442A9.117,9.117,0,0,1,9.407.035a9.117,9.117,0,0,1,9.407,9.407V45.5L52.368,3.484A8.705,8.705,0,0,1,58.639.035a9.458,9.458,0,0,1,6.9,2.195A8.707,8.707,0,0,1,68.988,8.5a9.459,9.459,0,0,1-2.195,6.9L33.24,57.42,66.165,90.66A9.2,9.2,0,0,1,68.988,97.4a8.213,8.213,0,0,1-2.822,6.428,9.094,9.094,0,0,1-13.17,0Z" transform="translate(11.407 0)" fill="#219ebc"/>
      <path id="Intersection_2" data-name="Intersection 2" d="M53,34.72,26.642,8.627c1.8-1.658,4.816-1.3,7.821-.946,2.928.346,5.848.693,7.639-.822,1.537-1.3,2.584-3.727,3.384-6.348l5.787,5.765L66.165,21.55a9.2,9.2,0,0,1,2.822,6.742,8.213,8.213,0,0,1-2.822,6.428,9.094,9.094,0,0,1-13.17,0Zm-50.33.157A6.227,6.227,0,0,1,.649,32.255,15.444,15.444,0,0,1,0,28.433c0-.006,0-.152,0-.3V2.706C2.474,1,4.807-.09,6.637.006c3.978.209,8.4,3.822,12.178,6.543V28.135a9.117,9.117,0,0,1-9.407,9.408A9.137,9.137,0,0,1,2.666,34.877Z" transform="translate(10.952 68.816)" fill="#023047"/>
      <path id="Intersection_3" data-name="Intersection 3" d="M52.523,23.781l-12.3-12.6c3.9-.652,7.673-1.727,9.969-3.449C54.48,4.515,54.9,3.718,55.813,0L65.968,10.211A10.306,10.306,0,0,1,69,16.281v1.81a9.648,9.648,0,0,1-3.235,5.9,9.431,9.431,0,0,1-13.247-.209Zm-50.33.157A8.789,8.789,0,0,1,0,20.377a26.2,26.2,0,0,1,4.543-5.8c2.974-2.643,8.817-3.182,13.819-3.112l.007,5.726A9.158,9.158,0,0,1,8.935,26.6,9.137,9.137,0,0,1,2.194,23.938Z" transform="translate(11.424 80.209)" fill="#ffff03"/>
      <ellipse id="Ellipse_1" data-name="Ellipse 1" cx="7.5" cy="7" rx="7.5" ry="7" transform="translate(4 46.989)" fill="#fb8500"/>
      <ellipse id="Ellipse_3" data-name="Ellipse 3" cx="3" cy="2.5" rx="3" ry="2.5" transform="translate(15 60.989)" fill="#fb8500"/>
      <circle id="Ellipse_4" data-name="Ellipse 4" cx="2.5" cy="2.5" r="2.5" transform="translate(6 39.989)" fill="#fb8500"/>
      <circle id="Ellipse_5" data-name="Ellipse 5" cx="1.5" cy="1.5" r="1.5" transform="translate(20 50.989)" fill="#fb8500"/>
      <circle id="Ellipse_6" data-name="Ellipse 6" cx="1" cy="1" r="1" transform="translate(22 62.989)" fill="#fb8500"/>
      <circle id="Ellipse_7" data-name="Ellipse 7" cx="1" cy="1" r="1" transform="translate(11 62.989)" fill="#fb8500"/>
      <ellipse id="Ellipse_8" data-name="Ellipse 8" cx="1.5" cy="1" rx="1.5" ry="1" transform="translate(5 44.989)" fill="#fb8500"/>
      <circle id="Ellipse_13" data-name="Ellipse 13" cx="1" cy="1" r="1" transform="translate(14 8.989)" fill="#fff"/>
      <circle id="Ellipse_14" data-name="Ellipse 14" cx="3" cy="3" r="3" transform="translate(16 1.989)" fill="#fff"/>
      <circle id="Ellipse_15" data-name="Ellipse 15" cx="1" cy="1" r="1" transform="translate(19 8.989)" fill="#fff"/>
      <circle id="Ellipse_19" data-name="Ellipse 19" cx="1.607" cy="1.607" r="1.607" transform="translate(28.865 9.156) rotate(103)" fill="#fff"/>
      <circle id="Ellipse_20" data-name="Ellipse 20" cx="1.205" cy="1.205" r="1.205" transform="translate(25.348 6.529) rotate(103)" fill="#fff"/>
      <circle id="Ellipse_21" data-name="Ellipse 21" cx="0.964" cy="0.964" r="0.964" transform="translate(24.288 12.552) rotate(103)" fill="#fff"/>
      <circle id="Ellipse_22" data-name="Ellipse 22" cx="2.5" cy="2.5" r="2.5" transform="translate(5 24.989)" fill="#fb8500"/>
      <ellipse id="Ellipse_23" data-name="Ellipse 23" cx="2.5" cy="3" rx="2.5" ry="3" transform="translate(0 30.989)" fill="#fb8500"/>
      <circle id="Ellipse_24" data-name="Ellipse 24" cx="2" cy="2" r="2" transform="translate(4 18.989)" fill="#fb8500"/>
      <circle id="Ellipse_27" data-name="Ellipse 27" cx="1.5" cy="1.5" r="1.5" transform="translate(7 35.989)" fill="#fb8500"/>
      <circle id="Ellipse_28" data-name="Ellipse 28" cx="1" cy="1" r="1" transform="translate(11 37.989)" fill="#fb8500"/>
      <circle id="Ellipse_29" data-name="Ellipse 29" cx="2.5" cy="2.5" r="2.5" transform="translate(40 64.989)" fill="#fff"/>
      <ellipse id="Ellipse_31" data-name="Ellipse 31" cx="2.5" cy="2" rx="2.5" ry="2" transform="translate(39 59.989)" fill="#fff"/>
      <circle id="Ellipse_36" data-name="Ellipse 36" cx="2.491" cy="2.491" r="2.491" transform="translate(34.708 65.091) rotate(137)" fill="#fff"/>
      <circle id="Ellipse_38" data-name="Ellipse 38" cx="1.607" cy="1.607" r="1.607" transform="translate(38.467 68.179) rotate(137)" fill="#fff"/>
      <circle id="Ellipse_39" data-name="Ellipse 39" cx="1.205" cy="1.205" r="1.205" transform="translate(28.256 61) rotate(137)" fill="#fb8500"/>
      <circle id="Ellipse_40" data-name="Ellipse 40" cx="1.205" cy="1.205" r="1.205" transform="translate(36.484 53.328) rotate(137)" fill="#fff"/>
      <circle id="Ellipse_41" data-name="Ellipse 41" cx="1.205" cy="1.205" r="1.205" transform="translate(24.498 57.912) rotate(137)" fill="#fb8500"/>
      <circle id="Ellipse_42" data-name="Ellipse 42" cx="0.964" cy="0.964" r="0.964" transform="translate(20.581 59.367) rotate(137)" fill="#fb8500"/>
      <circle id="Ellipse_43" data-name="Ellipse 43" cx="1.5" cy="1.5" r="1.5" transform="translate(34 58.989)" fill="#fff"/>
    </g>
  </g>
</svg>
