<svg xmlns="http://www.w3.org/2000/svg" width="430" height="430" viewBox="0 0 430 430">
  <g id="react" transform="translate(-1328 -2287)">
    <g id="Ellipse_34" data-name="Ellipse 34" transform="translate(1328 2287)" fill="#ffff03" stroke="#ffff03" stroke-width="10">
      <circle cx="215" cy="215" r="215" stroke="none"/>
      <circle cx="215" cy="215" r="210" fill="none"/>
    </g>
    <path id="Icon_awesome-react" data-name="Icon awesome-react" d="M131.766,48q-2.552-.851-5.1-1.607c.284-1.166.536-2.332.788-3.5,3.875-18.779,1.323-33.871-7.278-38.849-8.287-4.758-21.8.189-35.478,12.1-1.355,1.166-2.678,2.395-3.938,3.623-.851-.819-1.733-1.638-2.615-2.426C63.8,4.61,49.436-.746,40.834,4.263c-8.255,4.789-10.713,19-7.247,36.77.347,1.764.725,3.5,1.166,5.262-2.017.567-4,1.2-5.86,1.859C12.068,53.983,0,63.183,0,72.7c0,9.83,12.855,19.692,30.342,25.679,1.418.473,2.836.945,4.285,1.355-.473,1.89-.882,3.749-1.26,5.671-3.308,17.487-.725,31.35,7.53,36.108,8.507,4.915,22.812-.126,36.738-12.32,1.1-.977,2.206-1.985,3.308-3.056,1.386,1.355,2.836,2.647,4.285,3.907,13.485,11.595,26.813,16.29,35.037,11.532,8.507-4.915,11.28-19.819,7.688-37.967q-.425-2.08-.945-4.254c1.008-.284,1.985-.6,2.962-.914,18.18-6.018,31.35-15.754,31.35-25.742,0-9.547-12.414-18.81-29.554-24.7Zm-42.63-26.75C100.857,11.038,111.79,7.036,116.768,9.9c5.325,3.056,7.373,15.407,4.033,31.634-.221,1.071-.441,2.111-.725,3.151a161.3,161.3,0,0,0-21.2-3.34A159.193,159.193,0,0,0,85.45,24.618c1.229-1.166,2.426-2.269,3.686-3.371ZM52.681,89.051c1.607,2.741,3.245,5.482,4.978,8.161a142.673,142.673,0,0,1-14.62-2.363,147.184,147.184,0,0,1,5.136-14.021c1.449,2.773,2.93,5.514,4.506,8.224Zm-9.547-37.9c4.537-1.008,9.358-1.827,14.368-2.458-1.67,2.615-3.308,5.293-4.852,8-1.544,2.678-3.056,5.419-4.474,8.192-1.985-4.695-3.655-9.295-5.041-13.737Zm8.633,21.709c2.08-4.348,4.348-8.6,6.743-12.792s4.978-8.255,7.688-12.257c4.726-.347,9.547-.536,14.462-.536s9.767.189,14.462.536Q99.14,53.762,102.779,60t6.837,12.729q-3.167,6.522-6.806,12.855c-2.395,4.191-4.947,8.255-7.625,12.288-4.695.347-9.578.5-14.525.5s-9.736-.158-14.368-.441q-4.112-6-7.751-12.288c-2.426-4.191-4.663-8.444-6.774-12.792Zm56.9,16.132c1.607-2.773,3.119-5.577,4.6-8.413A146.262,146.262,0,0,1,118.6,94.534a138.4,138.4,0,0,1-14.809,2.521C105.489,94.408,107.1,91.7,108.671,88.988Zm4.537-24.1c-1.481-2.773-2.993-5.545-4.569-8.255q-2.316-4.017-4.821-7.94a145,145,0,0,1,14.462,2.521,139.44,139.44,0,0,1-5.073,13.674ZM80.723,29.438a138.361,138.361,0,0,1,9.326,11.28c-6.239-.284-12.509-.284-18.747,0C74.39,36.654,77.573,32.873,80.723,29.438ZM44.174,10.124C49.467,7.036,61.22,11.447,73.6,22.412c.788.693,1.575,1.449,2.395,2.206A160.077,160.077,0,0,0,62.48,41.348a166.088,166.088,0,0,0-21.173,3.277c-.41-1.607-.756-3.245-1.1-4.884-2.962-15.25-1.008-26.75,3.97-29.617ZM36.455,93.179c-1.323-.378-2.615-.788-3.907-1.229C25.837,89.839,18.212,86.5,12.7,82.12A14.138,14.138,0,0,1,6.774,72.7c0-5.766,9.957-13.139,24.324-18.149,1.8-.63,3.623-1.2,5.451-1.733a167.542,167.542,0,0,0,7.719,20.039,172.23,172.23,0,0,0-7.814,20.323Zm36.738,30.878a57.669,57.669,0,0,1-17.77,11.122,13.946,13.946,0,0,1-11.122.41c-5.01-2.9-7.089-14.021-4.254-28.987.347-1.764.725-3.529,1.166-5.262a157.625,157.625,0,0,0,21.394,3.088,166.276,166.276,0,0,0,13.611,16.825C75.209,122.229,74.2,123.174,73.193,124.057Zm7.719-7.656c-3.214-3.466-6.428-7.31-9.547-11.437,3.025.126,6.144.189,9.295.189,3.245,0,6.428-.063,9.578-.221A135.879,135.879,0,0,1,80.912,116.4Zm41.181,9.452a14,14,0,0,1-5.2,9.862c-5.01,2.9-15.691-.882-27.223-10.776-1.323-1.134-2.647-2.363-4-3.623a155.864,155.864,0,0,0,13.3-16.888,155.323,155.323,0,0,0,21.488-3.308c.315,1.292.6,2.584.851,3.844a57.437,57.437,0,0,1,.788,20.89Zm5.734-33.871c-.882.284-1.764.567-2.678.819a160.06,160.06,0,0,0-8.035-20.1,159.26,159.26,0,0,0,7.719-19.818c1.638.473,3.214.977,4.726,1.481,14.683,5.041,24.986,12.54,24.986,18.275,0,6.176-11,14.147-26.719,19.346ZM80.66,87.255A14.431,14.431,0,1,0,66.23,72.825,14.428,14.428,0,0,0,80.66,87.255Z" transform="translate(1464.6 2427.337)" fill="#023047"/>
  </g>
</svg>
