<svg xmlns="http://www.w3.org/2000/svg" width="430" height="430" viewBox="0 0 430 430">
  <g id="react-1" transform="translate(-1328 -2212)">
    <g id="Ellipse_34" data-name="Ellipse 34" transform="translate(1328 2212)" fill="#ffff03" stroke="#ffff03" stroke-width="10">
      <circle cx="215" cy="215" r="215" stroke="none"/>
      <circle cx="215" cy="215" r="210" fill="none"/>
    </g>
    <path id="Icon_awesome-npm" data-name="Icon awesome-npm" d="M70.58,42.619H62.738V26.934H70.58ZM141.16,11.25V58.3H70.58v7.842H39.211V58.3H0V11.25ZM39.211,19.092H7.842V50.461H23.527V26.934h7.842V50.461h7.842Zm39.211,0H47.053V58.3H62.738V50.461H78.422Zm54.9,0H86.264V50.461h15.684V26.934h7.842V50.461h7.842V26.934h7.842V50.461h7.842Z" transform="translate(1472 2463.75)" fill="#023047"/>
    <g id="Group_40" data-name="Group 40" transform="translate(-16.624)">
      <path id="Icon_awesome-react" data-name="Icon awesome-react" d="M104.028,38.367Q102.014,37.7,100,37.1c.224-.92.423-1.841.622-2.761,3.06-14.826,1.045-26.741-5.746-30.671-6.542-3.756-17.214.149-28.01,9.552-1.07.92-2.114,1.891-3.109,2.861-.672-.647-1.368-1.294-2.065-1.915C50.372,4.113,39.029-.115,32.238,3.84c-6.517,3.781-8.458,15-5.721,29.029.274,1.393.572,2.761.92,4.154-1.592.448-3.159.945-4.627,1.468C9.527,43.093,0,50.357,0,57.869,0,65.63,10.149,73.416,23.955,78.142c1.119.373,2.239.746,3.383,1.07-.373,1.493-.7,2.96-1,4.478C23.731,97.5,25.771,108.44,32.288,112.2c6.716,3.881,18.01-.1,29-9.726.871-.771,1.741-1.567,2.612-2.413,1.095,1.07,2.239,2.09,3.383,3.085,10.647,9.154,21.169,12.861,27.661,9.1,6.716-3.881,8.905-15.647,6.07-29.975q-.336-1.642-.746-3.358c.8-.224,1.567-.473,2.338-.721,14.353-4.751,24.751-12.438,24.751-20.323,0-7.537-9.8-14.851-23.333-19.5ZM70.372,17.248c9.254-8.06,17.885-11.219,21.816-8.955,4.2,2.413,5.821,12.164,3.184,24.975-.174.846-.348,1.667-.572,2.488a127.343,127.343,0,0,0-16.741-2.637,125.681,125.681,0,0,0-10.6-13.209C68.432,18.989,69.377,18.118,70.372,17.248ZM41.591,70.779c1.269,2.164,2.562,4.328,3.93,6.443A112.64,112.64,0,0,1,33.98,75.356a116.2,116.2,0,0,1,4.055-11.07c1.144,2.189,2.313,4.353,3.557,6.492ZM34.054,40.854c3.582-.8,7.388-1.443,11.343-1.94-1.318,2.065-2.612,4.179-3.831,6.318-1.219,2.114-2.413,4.279-3.532,6.468-1.567-3.706-2.886-7.338-3.98-10.846ZM40.87,57.993c1.642-3.433,3.433-6.791,5.323-10.1s3.93-6.517,6.07-9.676c3.731-.274,7.537-.423,11.418-.423s7.711.149,11.418.423q3.172,4.7,6.045,9.627t5.4,10.05q-2.5,5.149-5.373,10.149c-1.891,3.308-3.905,6.517-6.02,9.7-3.706.274-7.562.4-11.468.4s-7.686-.124-11.343-.348q-3.246-4.739-6.119-9.7c-1.915-3.308-3.682-6.667-5.348-10.1ZM85.795,70.729c1.269-2.189,2.463-4.4,3.632-6.642a115.471,115.471,0,0,1,4.2,11.02A109.262,109.262,0,0,1,81.939,77.1C83.282,75.008,84.551,72.869,85.795,70.729ZM89.377,51.7c-1.169-2.189-2.363-4.378-3.607-6.517q-1.828-3.172-3.806-6.269A114.472,114.472,0,0,1,93.382,40.9a110.086,110.086,0,0,1-4,10.8ZM63.731,23.715a109.235,109.235,0,0,1,7.363,8.905c-4.925-.224-9.875-.224-14.8,0C58.731,29.412,61.243,26.427,63.731,23.715ZM34.875,8.467c4.179-2.438,13.458,1.045,23.234,9.7.622.547,1.244,1.144,1.891,1.741A126.379,126.379,0,0,0,49.328,33.118a131.125,131.125,0,0,0-16.716,2.587c-.323-1.269-.6-2.562-.871-3.856C29.4,19.81,30.945,10.73,34.875,8.467ZM28.781,74.038c-1.045-.3-2.065-.622-3.085-.97-5.3-1.667-11.318-4.3-15.671-7.761a11.162,11.162,0,0,1-4.677-7.438c0-4.552,7.861-10.373,19.2-14.328,1.418-.5,2.861-.945,4.3-1.368A132.273,132.273,0,0,0,34.95,57.993a135.975,135.975,0,0,0-6.169,16.045Zm29,24.378a45.529,45.529,0,0,1-14.03,8.781,11.01,11.01,0,0,1-8.781.323c-3.955-2.289-5.6-11.07-3.358-22.885.274-1.393.572-2.786.92-4.154a124.444,124.444,0,0,0,16.89,2.438A131.273,131.273,0,0,0,60.173,96.2C59.377,96.973,58.581,97.719,57.785,98.416Zm6.094-6.045c-2.537-2.736-5.075-5.771-7.537-9.03,2.388.1,4.851.149,7.338.149,2.562,0,5.075-.05,7.562-.174a107.275,107.275,0,0,1-7.363,9.055Zm32.512,7.463a11.055,11.055,0,0,1-4.1,7.786c-3.955,2.289-12.388-.7-21.492-8.507-1.045-.9-2.09-1.866-3.159-2.861a123.054,123.054,0,0,0,10.5-13.333A122.627,122.627,0,0,0,95.1,80.306c.249,1.02.473,2.04.672,3.035a45.346,45.346,0,0,1,.622,16.492Zm4.527-26.741c-.7.224-1.393.448-2.114.647a126.367,126.367,0,0,0-6.343-15.87,125.734,125.734,0,0,0,6.094-15.647c1.294.373,2.537.771,3.731,1.169,11.592,3.98,19.726,9.9,19.726,14.428,0,4.876-8.681,11.169-21.094,15.273ZM63.681,69.361A11.393,11.393,0,1,0,52.288,57.968,11.391,11.391,0,0,0,63.681,69.361Z" transform="translate(1555.6 2327.052)" fill="#023047"/>
      <path id="Icon_awesome-github" data-name="Icon awesome-github" d="M27.715,65.614c0,.334-.384.6-.869.6-.551.05-.936-.217-.936-.6,0-.334.384-.6.869-.6C27.28,64.963,27.715,65.23,27.715,65.614Zm-5.2-.752c-.117.334.217.718.718.819a.784.784,0,0,0,1.036-.334c.1-.334-.217-.718-.718-.869A.857.857,0,0,0,22.519,64.863Zm7.384-.284c-.484.117-.819.434-.768.819.05.334.484.551.986.434.484-.117.819-.434.768-.768C30.839,64.746,30.388,64.528,29.9,64.579ZM40.9.562C17.725.562,0,18.154,0,41.324a41.883,41.883,0,0,0,28.316,39.96c2.138.384,2.89-.936,2.89-2.021,0-1.036-.05-6.749-.05-10.257,0,0-11.694,2.506-14.15-4.978,0,0-1.9-4.861-4.644-6.114,0,0-3.826-2.623.267-2.573a8.818,8.818,0,0,1,6.448,4.31c3.659,6.448,9.79,4.594,12.178,3.491a9.285,9.285,0,0,1,2.673-5.63c-9.338-1.036-18.76-2.389-18.76-18.46,0-4.594,1.27-6.9,3.943-9.84a15.784,15.784,0,0,1,.434-11.343c3.491-1.086,11.527,4.511,11.527,4.511a39.465,39.465,0,0,1,20.982,0s8.035-5.613,11.527-4.511a15.776,15.776,0,0,1,.434,11.343c2.673,2.957,4.31,5.262,4.31,9.84,0,16.121-9.84,17.407-19.178,18.46,1.537,1.32,2.84,3.826,2.84,7.751,0,5.63-.05,12.6-.05,13.966,0,1.086.768,2.406,2.89,2.021C71.534,75.7,82.86,59.851,82.86,41.324,82.86,18.154,64.066.562,40.9.562ZM16.238,58.18c-.217.167-.167.551.117.869.267.267.652.384.869.167.217-.167.167-.551-.117-.869C16.839,58.08,16.455,57.963,16.238,58.18Zm-1.8-1.353c-.117.217.05.484.384.652a.5.5,0,0,0,.718-.117c.117-.217-.05-.484-.384-.652C14.818,56.61,14.551,56.66,14.434,56.827Zm5.413,5.947c-.267.217-.167.718.217,1.036.384.384.869.434,1.086.167.217-.217.117-.718-.217-1.036C20.565,62.557,20.063,62.507,19.846,62.774Zm-1.9-2.456c-.267.167-.267.6,0,.986s.718.551.936.384a.762.762,0,0,0,0-1.036C18.644,60.268,18.209,60.1,17.942,60.319Z" transform="translate(1436.624 2338.848)" fill="#023047"/>
    </g>
  </g>
</svg>
